<svg width="38" height="38" viewBox="0 0 38 38" fill="none" xmlns="http://www.w3.org/2000/svg">
<path fill-rule="evenodd" clip-rule="evenodd" d="M20.9424 16.9189C21.8049 16.7696 22.637 17.2512 22.937 18.0741C23.2273 18.8649 23.7611 20.509 23.9722 22.4065C24.1809 24.2835 24.0924 26.5723 22.9634 28.5208C21.1305 31.6944 17.1529 33.0212 14.0245 31.2151C10.8952 29.4084 10.0612 25.2946 11.8909 22.1224C13.0208 20.1443 14.9527 18.9196 16.6824 18.1651C18.4272 17.4039 20.1116 17.058 20.9424 16.9189ZM20.8662 19.3472C20.0656 19.5064 18.8565 19.8078 17.632 20.342C16.1159 21.0033 14.7184 21.9594 13.9522 23.3021L13.9492 23.3073C12.6847 25.4976 13.3655 28.0922 15.212 29.1583C17.0601 30.2253 19.6435 29.521 20.9071 27.3324L20.9081 27.3307C21.669 26.018 21.7961 24.3275 21.6117 22.669C21.4632 21.3334 21.1245 20.1245 20.8662 19.3472Z" fill="#8C8C9C"/>
<path fill-rule="evenodd" clip-rule="evenodd" d="M34.7841 12.37C34.9865 12.9216 35.359 14.0678 35.5067 15.3958C35.6521 16.7032 35.5983 18.3508 34.774 19.7739C33.4399 22.084 30.519 23.0838 28.1921 21.7404C25.8644 20.3964 25.2743 17.3635 26.6053 15.0551C27.4298 13.6121 28.8253 12.7388 30.0321 12.2123C31.2542 11.6793 32.4293 11.4382 33.0085 11.3411C33.7751 11.2089 34.5174 11.6388 34.7841 12.37ZM32.7611 13.8114C32.9086 14.3044 33.0681 14.9556 33.1462 15.6583C33.2673 16.7473 33.1749 17.7967 32.7185 18.5841L32.7175 18.5859C31.9526 19.9107 30.4261 20.2877 29.3796 19.6835C28.3347 19.0803 27.8978 17.5664 28.6636 16.24L28.6666 16.2348C29.1274 15.4272 29.9885 14.8225 30.9817 14.3892C31.6243 14.1089 32.2628 13.9264 32.7611 13.8114Z" fill="#8C8C9C"/>
<path fill-rule="evenodd" clip-rule="evenodd" d="M13.584 6.69265C13.8172 7.32816 14.2463 8.64903 14.4162 10.1769C14.5838 11.6842 14.5179 13.557 13.5865 15.1645C12.0773 17.7773 8.78579 18.8916 6.17786 17.3859C3.56888 15.8796 2.89321 12.4675 4.39921 9.85597C5.33083 8.22528 6.91452 7.22866 8.30481 6.6222C9.71029 6.00912 11.0641 5.73127 11.7315 5.61943C12.5317 5.48124 13.3056 5.92926 13.584 6.69265ZM11.5452 8.07322C11.7337 8.6734 11.9533 9.51838 12.0558 10.4394C12.1991 11.7282 12.0945 13.0025 11.5312 13.9742L11.5302 13.9759C10.5904 15.6038 8.69305 16.0956 7.36536 15.3291C6.03925 14.5635 5.51671 12.6704 6.45753 11.0409L6.4605 11.0357C7.02849 10.0403 8.07775 9.31237 9.2544 8.79911C10.0977 8.43125 10.9334 8.20554 11.5452 8.07322Z" fill="#8C8C9C"/>
</svg>
