<svg width="20" height="21" viewBox="0 0 20 21" fill="none" xmlns="http://www.w3.org/2000/svg">
<path d="M8.16782 16.3356C9.94158 16.3356 11.5773 15.7621 12.9156 14.8062L17.9501 19.8407C18.1838 20.0744 18.4918 20.1912 18.821 20.1912C19.5114 20.1912 20 19.6601 20 18.9804C20 18.6617 19.8938 18.3537 19.6601 18.1306L14.6575 13.1174C15.709 11.7366 16.3356 10.0266 16.3356 8.16782C16.3356 3.67499 12.6606 0 8.16782 0C3.68561 0 0 3.66437 0 8.16782C0 12.6606 3.67499 16.3356 8.16782 16.3356ZM8.16782 14.5725C4.66277 14.5725 1.76314 11.6729 1.76314 8.16782C1.76314 4.66277 4.66277 1.76314 8.16782 1.76314C11.6729 1.76314 14.5725 4.66277 14.5725 8.16782C14.5725 11.6729 11.6729 14.5725 8.16782 14.5725Z" fill="#8C8C9C" fill-opacity="0.5"/>
</svg>
