<svg width="38" height="38" viewBox="0 0 38 38" fill="none" xmlns="http://www.w3.org/2000/svg">
<path fill-rule="evenodd" clip-rule="evenodd" d="M12.0029 14.821C13.8587 12.9652 16.3758 11.9226 19.0003 11.9226C21.6249 11.9226 24.1419 12.9652 25.9977 14.821C27.8536 16.6769 28.8962 19.1939 28.8962 21.8184C28.8962 22.4743 28.3645 23.0059 27.7087 23.0059C27.0528 23.0059 26.5212 22.4743 26.5212 21.8184C26.5212 19.8238 25.7288 17.9108 24.3184 16.5004C22.9079 15.09 20.995 14.2976 19.0003 14.2976C17.0057 14.2976 15.0927 15.09 13.6823 16.5004C12.2719 17.9108 11.4795 19.8238 11.4795 21.8184C11.4795 22.4743 10.9478 23.0059 10.292 23.0059C9.63615 23.0059 9.10449 22.4743 9.10449 21.8184C9.10449 19.1939 10.1471 16.6769 12.0029 14.821Z" fill="#8C8C9C"/>
<path fill-rule="evenodd" clip-rule="evenodd" d="M17.6075 23.8055C18.3794 23.0349 19.6296 23.0349 20.4015 23.8055L20.1009 24.1067L20.4015 23.8055L23.7582 27.1566C24.2223 27.62 24.2229 28.3719 23.7596 28.836C23.2962 29.3001 22.5443 29.3007 22.0802 28.8374L20.1994 26.9597L20.1994 33.6009C20.1994 34.2567 19.6677 34.7884 19.0119 34.7884C18.3561 34.7884 17.8244 34.2567 17.8244 33.6009L17.8244 26.945L15.9288 28.8374C15.4647 29.3007 14.7128 29.3001 14.2495 28.836C13.7861 28.3719 13.7867 27.62 14.2508 27.1566L17.6075 23.8055Z" fill="#8C8C9C"/>
<path fill-rule="evenodd" clip-rule="evenodd" d="M19.0002 3.21423C19.656 3.21423 20.1877 3.7459 20.1877 4.40173V7.42065C20.1877 8.07649 19.656 8.60815 19.0002 8.60815C18.3443 8.60815 17.8127 8.07649 17.8127 7.42065V4.40173C17.8127 3.7459 18.3443 3.21423 19.0002 3.21423ZM32.0315 8.78707C32.4953 9.25081 32.4953 10.0027 32.0315 10.4664L30.0141 12.4839C29.5503 12.9476 28.7985 12.9476 28.3347 12.4839C27.871 12.0201 27.871 11.2682 28.3347 10.8045L30.3521 8.78707C30.8159 8.32332 31.5678 8.32332 32.0315 8.78707ZM5.96881 8.78707C6.43256 8.32332 7.18444 8.32332 7.64819 8.78707L9.66562 10.8045C10.1294 11.2682 10.1294 12.0201 9.66562 12.4839C9.20187 12.9476 8.44999 12.9476 7.98624 12.4839L5.96881 10.4664C5.50506 10.0027 5.50506 9.25082 5.96881 8.78707ZM0.395996 21.8184C0.395996 21.1626 0.927658 20.6309 1.5835 20.6309H4.48627C5.14211 20.6309 5.67377 21.1626 5.67377 21.8184C5.67377 22.4743 5.14211 23.0059 4.48627 23.0059H1.5835C0.927658 23.0059 0.395996 22.4743 0.395996 21.8184ZM32.3266 21.8184C32.3266 21.1626 32.8582 20.6309 33.5141 20.6309H36.4168C37.0727 20.6309 37.6043 21.1626 37.6043 21.8184C37.6043 22.4743 37.0727 23.0059 36.4168 23.0059H33.5141C32.8582 23.0059 32.3266 22.4743 32.3266 21.8184Z" fill="#8C8C9C"/>
</svg>
