<svg width="38" height="38" viewBox="0 0 38 38" fill="none" xmlns="http://www.w3.org/2000/svg">
<path fill-rule="evenodd" clip-rule="evenodd" d="M12.0029 14.8209C13.8587 12.9651 16.3758 11.9225 19.0003 11.9225C21.6249 11.9225 24.1419 12.9651 25.9977 14.8209C27.8536 16.6767 28.8962 19.1938 28.8962 21.8183C28.8962 22.4742 28.3645 23.0058 27.7087 23.0058C27.0528 23.0058 26.5212 22.4742 26.5212 21.8183C26.5212 19.8237 25.7288 17.9107 24.3184 16.5003C22.9079 15.0899 20.995 14.2975 19.0003 14.2975C17.0057 14.2975 15.0927 15.0899 13.6823 16.5003C12.2719 17.9107 11.4795 19.8237 11.4795 21.8183C11.4795 22.4742 10.9478 23.0058 10.292 23.0058C9.63615 23.0058 9.10449 22.4742 9.10449 21.8183C9.10449 19.1938 10.1471 16.6767 12.0029 14.8209Z" fill="#8C8C9C"/>
<path fill-rule="evenodd" clip-rule="evenodd" d="M19.0002 3.21411C19.656 3.21411 20.1877 3.74577 20.1877 4.40161V7.42053C20.1877 8.07636 19.656 8.60803 19.0002 8.60803C18.3443 8.60803 17.8127 8.07636 17.8127 7.42053V4.40161C17.8127 3.74577 18.3443 3.21411 19.0002 3.21411ZM32.0315 8.78695C32.4953 9.25069 32.4953 10.0026 32.0315 10.4663L30.0141 12.4838C29.5503 12.9475 28.7985 12.9475 28.3347 12.4838C27.871 12.02 27.871 11.2681 28.3347 10.8044L30.3521 8.78695C30.8159 8.3232 31.5678 8.3232 32.0315 8.78695ZM5.96881 8.78695C6.43256 8.3232 7.18444 8.3232 7.64819 8.78695L9.66562 10.8044C10.1294 11.2681 10.1294 12.02 9.66562 12.4838C9.20187 12.9475 8.44999 12.9475 7.98624 12.4838L5.96881 10.4663C5.50506 10.0026 5.50506 9.25069 5.96881 8.78695ZM0.395996 21.8183C0.395996 21.1625 0.927658 20.6308 1.5835 20.6308H4.48627C5.14211 20.6308 5.67377 21.1625 5.67377 21.8183C5.67377 22.4741 5.14211 23.0058 4.48627 23.0058H1.5835C0.927658 23.0058 0.395996 22.4741 0.395996 21.8183ZM32.3266 21.8183C32.3266 21.1625 32.8582 20.6308 33.5141 20.6308H36.4168C37.0727 20.6308 37.6043 21.1625 37.6043 21.8183C37.6043 22.4741 37.0727 23.0058 36.4168 23.0058H33.5141C32.8582 23.0058 32.3266 22.4741 32.3266 21.8183Z" fill="#8C8C9C"/>
<path fill-rule="evenodd" clip-rule="evenodd" d="M19.4387 23.2433C20.0945 23.2433 20.6262 23.7749 20.6262 24.4308L20.6262 31.0719L22.5069 29.1943C22.9711 28.7309 23.723 28.7315 24.1863 29.1957C24.6497 29.6598 24.6491 30.4117 24.1849 30.875L20.8283 34.2261C20.0564 34.9968 18.8062 34.9968 18.0342 34.2261L14.6776 30.875C14.2135 30.4117 14.2129 29.6598 14.6762 29.1957C15.1396 28.7315 15.8915 28.7309 16.3556 29.1943L18.2512 31.0867L18.2512 24.4308C18.2512 23.7749 18.7828 23.2433 19.4387 23.2433Z" fill="#8C8C9C"/>
</svg>
