<svg width="38" height="38" viewBox="0 0 38 38" fill="none" xmlns="http://www.w3.org/2000/svg">
<path fill-rule="evenodd" clip-rule="evenodd" d="M25.0928 15.5546C25.0928 12.9322 27.1079 10.6593 29.7651 10.6593C32.4038 10.6593 34.4374 12.9125 34.4374 15.5546C34.4374 18.177 32.4223 20.45 29.7651 20.45H22.8862C22.2304 20.45 21.6987 19.9183 21.6987 19.2625C21.6987 18.6066 22.2304 18.075 22.8862 18.075H29.7651C30.9684 18.075 32.0624 17.0122 32.0624 15.5546C32.0624 14.0892 30.961 13.0343 29.7651 13.0343C28.5618 13.0343 27.4678 14.097 27.4678 15.5546C27.4678 16.2105 26.9362 16.7421 26.2803 16.7421C25.6245 16.7421 25.0928 16.2105 25.0928 15.5546Z" fill="#8C8C9C"/>
<path fill-rule="evenodd" clip-rule="evenodd" d="M12.9868 11.1577C12.9868 7.96758 15.3477 5.14587 18.5303 5.14587C21.6912 5.14587 24.0737 7.94365 24.0737 11.1577C24.0737 14.3478 21.7128 17.1695 18.5303 17.1695H8.63623C7.98039 17.1695 7.44873 16.6379 7.44873 15.982C7.44873 15.3262 7.98039 14.7945 8.63623 14.7945H18.5303C20.1733 14.7945 21.6987 13.2761 21.6987 11.1577C21.6987 9.02733 20.1625 7.52087 18.5303 7.52087C16.8872 7.52087 15.3618 9.03926 15.3618 11.1577C15.3618 11.8135 14.8301 12.3452 14.1743 12.3452C13.5185 12.3452 12.9868 11.8135 12.9868 11.1577Z" fill="#8C8C9C"/>
<path fill-rule="evenodd" clip-rule="evenodd" d="M12.9869 27.0091C12.9869 30.1992 15.3479 33.0209 18.5304 33.0209C21.6913 33.0209 24.0739 30.2231 24.0739 27.0091C24.0739 23.8189 21.7129 20.9972 18.5304 20.9972H4.75C4.09416 20.9972 3.5625 21.5289 3.5625 22.1847C3.5625 22.8406 4.09416 23.3722 4.75 23.3722H18.5304C20.1734 23.3722 21.6989 24.8906 21.6989 27.0091C21.6989 29.1394 20.1627 30.6459 18.5304 30.6459C16.8873 30.6459 15.3619 29.1275 15.3619 27.0091C15.3619 26.3532 14.8303 25.8215 14.1744 25.8215C13.5186 25.8215 12.9869 26.3532 12.9869 27.0091Z" fill="#8C8C9C"/>
</svg>
